<svg viewBox="0 0 203.66 49.13" xmlns="http://www.w3.org/2000/svg" xmlns:xlink="http://www.w3.org/1999/xlink"><clipPath id="a"><path d="m0 0h203.66v49.13h-203.66z"/></clipPath><g clip-path="url(#a)" fill="#fff"><path d="m172.71 24.41a7.81 7.81 0 1 1 -7.81-7.81 7.81 7.81 0 0 1 7.81 7.81m4.59 0a12.4 12.4 0 1 0 -12.4 12.39 12.4 12.4 0 0 0 12.4-12.39"/><path d="m184.06 28.58c.07 4.74 4.18 8.22 10.1 8.22 5.46 0 9.47-3.24 9.5-7.69 0-4.91-3.65-6.17-7.83-6.93s-6-1.18-6-3.17 1.6-2.82 3.83-2.82c2.54 0 4.14 1.43 4.35 3.48h5.12c-.11-4.42-4-7.66-9.47-7.66s-9.09 3.1-9.09 7.38c0 4.95 3.62 6.27 7.73 7s6.06 1.21 6.06 3.27-1.78 3-4.18 3c-3 0-4.88-1.64-5-4zm-59.26-16.36v24.37h5.2v-10.06h9.68v10.06h5.22v-24.37h-5.2v9.78h-9.7v-9.78zm-27 0v4.49h7v19.88h5.23v-19.88h7v-4.49zm-13.44 24.37h5.22v-24.37h-5.22zm-23.78 0h14.9v-4.49h-9.68v-19.88h-5.22z"/><path d="m21.27 43.13-9.78-5.65a45.59 45.59 0 0 1 25.86-10.91v7.28zm-16.08-18.36a33.93 33.93 0 0 1 12 2.5 52.29 52.29 0 0 0 -10.45 7.48l-1.55-.9zm16.08-18.77 16.08 9.29v6.07a47.54 47.54 0 0 0 -14.18 3.14 36.56 36.56 0 0 0 -18-4.92v-4.3zm0-6-21.27 12.28v24.56l21.27 12.29 21.28-12.29v-24.56z"/></g></svg>